<svg xmlns="http://www.w3.org/2000/svg" viewBox="0 0 1024 1024" width="1024" height="1024">
  <defs>
    <linearGradient id="iconGradient" x1="0" y1="0" x2="1024" y2="1024" gradientUnits="userSpaceOnUse">
      <stop offset="0%" stop-color="#5B8DEF"/>
      <stop offset="50%" stop-color="#8A6CF0"/>
      <stop offset="100%" stop-color="#B86CD9"/>
    </linearGradient>
    <linearGradient id="topHighlight" x1="512" y1="0" x2="512" y2="520" gradientUnits="userSpaceOnUse">
      <stop offset="0%" stop-color="#FFFFFF" stop-opacity="0.35"/>
      <stop offset="100%" stop-color="#FFFFFF" stop-opacity="0"/>
    </linearGradient>
    <filter id="tileShadow" x="-10%" y="-10%" width="120%" height="130%">
      <feDropShadow dx="0" dy="8" stdDeviation="18" flood-color="#000000" flood-opacity="0.14"/>
    </filter>
  </defs>

  <g filter="url(#tileShadow)">
    <rect x="88" y="88" width="848" height="848" rx="204" fill="url(#iconGradient)"/>
    <rect x="88" y="88" width="848" height="848" rx="204" fill="url(#topHighlight)"/>
  </g>

  <g fill="#FFFFFF" transform="translate(154 154) scale(22.375)">
    <path
      d="M12 7 a9 9 0 1 0 0 18 a9 9 0 1 0 0 -18 Z M15.2 5.4 a8 8 0 1 1 0 16 a8 8 0 1 1 0 -16 Z"
      fill-rule="evenodd"
    />
    <circle cx="25" cy="16" r="2.2"/>
  </g>
</svg>
